<?xml version="1.0" encoding="utf-8"?>
<!-- Generator: Adobe Illustrator 27.5.0, SVG Export Plug-In . SVG Version: 6.00 Build 0)  -->
<svg version="1.1" xmlns="http://www.w3.org/2000/svg" xmlns:xlink="http://www.w3.org/1999/xlink" x="0px" y="0px"
	 viewBox="0 0 1122 1122" style="enable-background:new 0 0 1122 1122;" xml:space="preserve">
<g id="Bg">
	<g>
		<g>
			<rect style="fill:#FFFFFF;" width="1122" height="1122"/>
		</g>
	</g>
</g>
<g id="Object">
	<g>
		<path style="fill:none;" d="M494.547,301.148c-103.799,0-187.971,84.142-187.971,187.968c0,103.82,84.172,187.967,187.971,187.967
			c103.823,0,187.977-84.148,187.977-187.967C682.524,385.29,598.37,301.148,494.547,301.148z M405.509,558.576
			c-2.778,0-5.568-0.911-7.91-2.745c-5.489-4.394-6.391-12.373-2.051-17.866l131.306-165.161c4.345-5.495,12.346-6.366,17.835-2.033
			c5.495,4.369,6.434,12.343,2.058,17.835l-131.287,165.17C412.953,556.951,409.225,558.576,405.509,558.576z M601.814,443.674
			L470.502,608.841c-2.506,3.147-6.21,4.799-9.937,4.799c-2.766,0-5.556-0.908-7.898-2.744c-5.496-4.397-6.427-12.37-2.058-17.863
			L581.92,427.866c4.346-5.49,12.364-6.4,17.835-2.055C605.251,430.205,606.177,438.182,601.814,443.674z"/>
		<path style="fill:#616E7D;" d="M875.403,808.656l-2.833-2.845l-68.606,68.6l1.67,1.655l18.193,18.166
			c11.656,11.681,36.464,5.78,55.424-13.151c18.943-18.967,24.838-43.772,13.182-55.424l-17-17H875.403z"/>
		<polygon style="fill:#AAD4C8;" points="855.782,789.313 787.176,857.868 803.964,874.411 872.57,805.811 870.61,803.85 
			870.555,803.881 		"/>
		<path style="fill:#616E7D;" d="M490.891,221.769c-147.633,0-267.307,119.704-267.307,267.347
			c0,147.637,119.674,267.316,267.307,267.316c54.735,0,105.542-16.474,147.937-44.694l148.348,146.13l68.606-68.555
			L708.403,644.155c31.253-43.747,49.833-97.184,49.833-155.039C758.235,341.473,638.562,221.769,490.891,221.769z M494.547,677.084
			c-103.799,0-187.971-84.148-187.971-187.967c0-103.827,84.172-187.968,187.971-187.968c103.823,0,187.977,84.142,187.977,187.968
			C682.524,592.936,598.37,677.084,494.547,677.084z"/>
		<path style="fill:#82BFAB;" d="M526.853,372.805L395.547,537.965c-4.339,5.492-3.438,13.472,2.051,17.866
			c2.342,1.834,5.132,2.745,7.91,2.745c3.716,0,7.444-1.625,9.95-4.799l131.287-165.17c4.376-5.492,3.438-13.466-2.058-17.835
			C539.199,366.438,531.198,367.309,526.853,372.805z"/>
		<path style="fill:#82BFAB;" d="M581.92,427.866L450.609,593.033c-4.369,5.493-3.438,13.466,2.058,17.863
			c2.342,1.836,5.132,2.744,7.898,2.744c3.728,0,7.432-1.652,9.937-4.799l131.312-165.167c4.364-5.492,3.438-13.469-2.058-17.862
			C594.285,421.466,586.266,422.377,581.92,427.866z"/>
	</g>
</g>
</svg>
